<svg id="visual" viewBox="0 0 900 600" width="900" height="600" xmlns="http://www.w3.org/2000/svg" xmlns:xlink="http://www.w3.org/1999/xlink" version="1.1"><rect x="0" y="0" width="900" height="600" fill="#fff"></rect><path d="M0 226L21.5 227.8C43 229.7 86 233.3 128.8 249.7C171.7 266 214.3 295 257.2 299.7C300 304.3 343 284.7 385.8 272.2C428.7 259.7 471.3 254.3 514.2 260C557 265.7 600 282.3 642.8 297C685.7 311.7 728.3 324.3 771.2 323.2C814 322 857 307 878.5 299.5L900 292L900 0L878.5 0C857 0 814 0 771.2 0C728.3 0 685.7 0 642.8 0C600 0 557 0 514.2 0C471.3 0 428.7 0 385.8 0C343 0 300 0 257.2 0C214.3 0 171.7 0 128.8 0C86 0 43 0 21.5 0L0 0Z" fill="#ff9088"></path><path d="M0 194L21.5 199.8C43 205.7 86 217.3 128.8 215.5C171.7 213.7 214.3 198.3 257.2 194.2C300 190 343 197 385.8 201.8C428.7 206.7 471.3 209.3 514.2 217.8C557 226.3 600 240.7 642.8 243.7C685.7 246.7 728.3 238.3 771.2 242.7C814 247 857 264 878.5 272.5L900 281L900 0L878.5 0C857 0 814 0 771.2 0C728.3 0 685.7 0 642.8 0C600 0 557 0 514.2 0C471.3 0 428.7 0 385.8 0C343 0 300 0 257.2 0C214.3 0 171.7 0 128.8 0C86 0 43 0 21.5 0L0 0Z" fill="#fc8980"></path><path d="M0 235L21.5 222.5C43 210 86 185 128.8 172.3C171.7 159.7 214.3 159.3 257.2 166.5C300 173.7 343 188.3 385.8 193.3C428.7 198.3 471.3 193.7 514.2 192.5C557 191.3 600 193.7 642.8 194.7C685.7 195.7 728.3 195.3 771.2 202.8C814 210.3 857 225.7 878.5 233.3L900 241L900 0L878.5 0C857 0 814 0 771.2 0C728.3 0 685.7 0 642.8 0C600 0 557 0 514.2 0C471.3 0 428.7 0 385.8 0C343 0 300 0 257.2 0C214.3 0 171.7 0 128.8 0C86 0 43 0 21.5 0L0 0Z" fill="#f98278"></path><path d="M0 135L21.5 136C43 137 86 139 128.8 140.2C171.7 141.3 214.3 141.7 257.2 138.3C300 135 343 128 385.8 131.3C428.7 134.7 471.3 148.3 514.2 150.3C557 152.3 600 142.7 642.8 143.5C685.7 144.3 728.3 155.7 771.2 159.3C814 163 857 159 878.5 157L900 155L900 0L878.5 0C857 0 814 0 771.2 0C728.3 0 685.7 0 642.8 0C600 0 557 0 514.2 0C471.3 0 428.7 0 385.8 0C343 0 300 0 257.2 0C214.3 0 171.7 0 128.8 0C86 0 43 0 21.5 0L0 0Z" fill="#f67c70"></path><path d="M0 134L21.5 124.7C43 115.3 86 96.7 128.8 91C171.7 85.3 214.3 92.7 257.2 100.5C300 108.3 343 116.7 385.8 122.5C428.7 128.3 471.3 131.7 514.2 129.3C557 127 600 119 642.8 109.3C685.7 99.7 728.3 88.3 771.2 85.2C814 82 857 87 878.5 89.5L900 92L900 0L878.5 0C857 0 814 0 771.2 0C728.3 0 685.7 0 642.8 0C600 0 557 0 514.2 0C471.3 0 428.7 0 385.8 0C343 0 300 0 257.2 0C214.3 0 171.7 0 128.8 0C86 0 43 0 21.5 0L0 0Z" fill="#f37568"></path><path d="M0 31L21.5 31.5C43 32 86 33 128.8 38.5C171.7 44 214.3 54 257.2 61.3C300 68.7 343 73.3 385.8 70.2C428.7 67 471.3 56 514.2 55.3C557 54.7 600 64.3 642.8 67.3C685.7 70.3 728.3 66.7 771.2 65.5C814 64.3 857 65.7 878.5 66.3L900 67L900 0L878.5 0C857 0 814 0 771.2 0C728.3 0 685.7 0 642.8 0C600 0 557 0 514.2 0C471.3 0 428.7 0 385.8 0C343 0 300 0 257.2 0C214.3 0 171.7 0 128.8 0C86 0 43 0 21.5 0L0 0Z" fill="#f06f60"></path></svg>