<svg id="visual" viewBox="0 0 900 300" width="900" height="300" xmlns="http://www.w3.org/2000/svg" xmlns:xlink="http://www.w3.org/1999/xlink" version="1.1"><path d="M0 250L25 251.2C50 252.3 100 254.7 150 257.5C200 260.3 250 263.7 300 264.2C350 264.7 400 262.3 450 259.3C500 256.3 550 252.7 600 249.7C650 246.7 700 244.3 750 244.8C800 245.3 850 248.7 875 250.3L900 252L900 301L875 301C850 301 800 301 750 301C700 301 650 301 600 301C550 301 500 301 450 301C400 301 350 301 300 301C250 301 200 301 150 301C100 301 50 301 25 301L0 301Z" fill="#f06f60" stroke-linecap="round" stroke-linejoin="miter"></path></svg>